<svg width="500" height="500" viewBox="0 0 500 500" fill="none" xmlns="http://www.w3.org/2000/svg">
<path d="M484.217 250C484.217 120.646 379.354 15.7831 250 15.7831C120.646 15.7831 15.7831 120.646 15.7831 250C15.7831 379.354 120.646 484.217 250 484.217C379.354 484.217 484.217 379.354 484.217 250ZM490 250C490 382.548 382.548 490 250 490C117.452 490 10 382.548 10 250C10 117.452 117.452 10 250 10C382.548 10 490 117.452 490 250Z" fill="#737373" stroke="#737373"/>
<path d="M432.993 135.722C432.965 136.359 431.793 139.624 429.478 145.517C427.162 151.41 424.036 159.237 420.1 168.999C416.17 178.602 411.504 189.826 406.102 202.67C400.82 215.524 395.141 229.146 389.066 243.536C382.991 257.926 376.714 272.78 370.235 288.098C363.757 303.415 357.352 318.419 351.022 333.109C344.813 347.809 338.812 361.885 333.02 375.338C327.356 388.642 322.236 400.549 317.662 411.061C313.209 421.582 309.435 430.398 306.341 437.509C303.374 444.47 301.423 448.953 300.488 450.957C300.071 452.203 299.497 452.878 298.767 452.981C298.158 453.094 297.372 453.113 296.408 453.039C295.686 452.983 295.154 452.702 294.814 452.196C294.587 451.859 294.283 451.915 293.9 452.365C293.029 452.937 292.19 452.792 291.382 451.931C290.687 451.238 290.149 451.116 289.767 451.566C288.371 453.056 287.309 453.852 286.579 453.956C285.843 454.218 285.52 453.314 285.612 451.244C285.908 447.272 285.709 440.865 285.012 432.023C284.444 423.031 283.46 412.489 282.062 400.396C280.791 388.154 279.205 374.849 277.303 360.48C275.401 346.112 273.393 331.416 271.279 316.392C269.164 301.368 267.043 286.503 264.914 271.797C262.786 257.092 260.732 243.431 258.753 230.814C256.781 218.038 255.046 206.719 253.549 196.856C252.052 186.993 250.874 179.471 250.016 174.292C247.942 180.203 245.167 188.297 241.69 198.574C238.221 208.692 234.391 220.14 230.2 232.919C226.009 245.697 221.599 259.337 216.969 273.839C212.346 288.182 207.727 302.445 203.111 316.629C198.495 330.812 194.081 344.532 189.869 357.788C185.784 370.894 182.125 382.595 178.889 392.891C175.661 403.027 173.06 411.295 171.084 417.693C169.109 424.092 168.044 427.685 167.888 428.471C167.626 428.93 167.297 429.544 166.9 430.312C166.504 431.081 166.04 432.004 165.509 433.081C164.985 433.999 164.21 435.137 163.183 436.496C162.325 436.749 161.592 436.932 160.983 437.045C160.494 437.167 159.949 437.205 159.347 437.158C158.475 437.73 157.728 438.231 157.105 438.662C156.474 439.253 155.911 439.688 155.416 439.97C154.913 440.41 154.413 440.771 153.917 441.052C153.28 441.802 152.65 442.392 152.026 442.823C151.403 443.254 150.783 443.606 150.167 443.878C149.926 443.859 149.391 443.658 148.562 443.274C147.854 442.9 147.089 442.441 146.267 441.898C145.565 441.364 144.867 440.751 144.173 440.058C143.471 439.525 143.075 438.935 142.982 438.288C142.479 436.012 141.699 431.797 140.642 425.644C139.585 419.49 138.29 411.88 136.758 402.813C135.346 393.755 133.747 383.485 131.959 372.002C130.292 360.528 128.412 348.398 126.319 335.613C124.347 322.837 122.272 309.653 120.094 296.062C118.036 282.481 115.975 268.979 113.911 255.557C112.322 245.048 110.623 234.29 108.814 223.284C107.005 212.279 105.189 201.432 103.366 190.745C101.543 180.058 99.7591 169.853 98.0142 160.131C96.3898 150.418 94.8435 141.67 93.3754 133.886C92.0347 125.953 90.8785 119.312 89.9068 113.964C88.9421 108.456 88.3214 104.733 88.0447 102.794C87.8673 101.342 88.2177 100.251 89.096 99.5199C90.1018 98.639 91.1184 98.8775 92.1459 100.235C92.9537 101.097 93.6126 101.228 94.1225 100.628C94.7529 100.038 95.3691 99.7657 95.9713 99.8123C96.3326 99.8403 96.8675 100.041 97.576 100.416C98.4049 100.8 99.2304 101.263 100.052 101.806C100.881 102.19 101.646 102.648 102.348 103.182C103.17 103.725 103.814 104.174 104.282 104.53C104.75 104.886 105.047 104.989 105.175 104.839C105.423 104.698 105.617 104.394 105.759 103.925C106.021 103.466 106.223 103.003 106.364 102.534C106.626 102.075 107.066 101.71 107.682 101.438C109.035 100.903 110.296 101.081 111.465 101.97C112.634 102.86 113.693 103.501 114.643 103.894C115.358 104.109 115.723 104.057 115.737 103.739C115.758 103.261 115.719 102.779 115.62 102.292C115.648 101.655 115.729 101.182 115.864 100.873C116.126 100.413 116.795 100.305 117.872 100.549C119.558 100.679 120.919 101.344 121.953 102.542C123.115 103.591 124.065 106.7 124.803 111.871C124.988 113.163 125.598 117.125 126.633 123.757C127.797 130.238 129.18 138.575 130.783 148.765C132.507 158.966 134.412 170.538 136.497 183.482C138.583 196.427 140.764 209.938 143.041 224.016C145.326 237.935 147.603 252.012 149.873 266.25C152.27 280.337 154.515 293.773 156.608 306.558C158.701 319.344 160.545 330.911 162.141 341.261C163.858 351.621 165.238 360.036 166.281 366.509C170.041 358.011 174.321 347.317 179.121 334.426C183.928 321.376 188.898 307.379 194.031 292.437C199.164 277.494 204.311 262.234 209.471 246.654C214.639 230.915 219.468 216.029 223.956 201.995C228.565 187.971 232.628 175.343 236.147 164.11C239.665 152.878 242.341 144.296 244.174 138.366C245.3 134.778 246.107 131.565 246.595 128.727C247.211 125.738 247.936 122.998 248.772 120.506C249.579 118.651 250.698 116.581 252.128 114.295C253.559 112.008 254.586 110.65 255.209 110.219C256.937 109.394 258.336 109.182 259.406 109.585C260.603 109.837 262.035 110.268 263.699 110.876C264.295 111.082 264.663 110.95 264.805 110.482C265.067 110.023 265.272 109.479 265.42 108.852C265.576 108.065 265.792 107.283 266.068 106.505C266.344 105.728 266.978 105.058 267.97 104.495C271.072 102.658 272.978 101.927 273.686 102.301C274.395 102.675 275.029 104.722 275.59 108.44C275.675 109.246 276.115 112.955 276.91 119.568C277.832 126.031 278.971 134.428 280.326 144.76C281.802 155.1 283.392 166.968 285.095 180.362C286.919 193.766 288.838 207.736 290.853 222.273C292.989 236.819 295.057 251.52 297.058 266.375C299.186 281.081 301.226 295.061 303.177 308.314C305.256 321.418 307.143 333.388 308.838 344.226C310.661 354.913 312.215 363.502 313.498 369.993C315.261 365.655 317.761 359.697 320.997 352.117C324.353 344.547 328.12 335.891 332.297 326.147C336.482 316.245 341.063 305.574 346.041 294.135C351.025 282.536 356.084 270.624 361.218 258.398C366.351 246.172 371.424 233.941 376.437 221.706C381.578 209.321 386.396 197.39 390.892 185.913C395.388 174.437 399.487 163.729 403.19 153.789C407.02 143.699 410.128 134.911 412.514 127.426C412.939 126.021 413.604 124.634 414.511 123.266C415.417 121.899 416.317 120.69 417.209 119.64C418.229 118.441 419.114 117.551 419.865 116.97C420.743 116.239 421.303 115.883 421.544 115.901C422.493 116.294 423.379 116.762 424.201 117.305C425.023 117.848 425.593 118.611 425.912 119.595C426.366 120.269 426.578 120.925 426.55 121.562C426.649 122.049 426.688 122.531 426.667 123.009C426.767 123.496 426.93 123.908 427.156 124.245C427.39 124.423 427.868 124.54 428.591 124.596C429.795 124.689 430.561 125.148 430.887 125.972C431.213 126.796 431.358 127.606 431.323 128.403C431.408 129.208 431.433 130.009 431.398 130.805C431.37 131.442 431.603 131.62 432.099 131.339C432.701 131.385 432.974 132.046 432.918 133.32C432.989 134.444 433.014 135.245 432.993 135.722Z" fill="black"/>
<path d="M196.972 197.523L163.31 212.937C166.033 223.346 166.466 232.261 164.609 239.681L129.501 253.85C121.144 249.624 113.756 240.502 107.338 226.487C104.611 220.53 102.968 214.712 102.411 209.033L278.687 128.315L291.813 147.418L239.19 309.801C236.044 320.142 231.935 329.018 226.862 336.427L223.844 340.353L226.977 342.415C237.355 335.755 248.818 329.552 261.366 323.806L305.526 303.585C302.803 293.176 302.369 284.261 304.226 276.841L339.334 262.672C347.692 266.899 355.079 276.02 361.497 290.036C364.225 295.992 365.867 301.81 366.424 307.489L179.652 393.014L166.526 373.911L219.148 211.528C222.294 201.187 226.524 192.256 231.838 184.736L234.495 180.976L231.361 178.914C220.983 185.574 209.52 191.777 196.972 197.523Z" fill="#A6137A" fill-opacity="0.64"/>
</svg>
