<svg width="500" height="500" viewBox="0 0 500 500" fill="none" xmlns="http://www.w3.org/2000/svg">
<path d="M240.426 198.744L219.965 156H352L292.217 281H279.748L246.5 211.496L213.252 281H200.783L141 156H153.148L206.858 268.608L240.426 198.744ZM336.655 162.645H235.311L252.574 198.744L286.142 268.608L336.655 162.645Z" fill="#565353"/>
<path d="M355.705 250.3L389.966 316.718C391.166 319.045 391.56 320.754 391.148 321.844C390.807 322.902 389.417 323.987 386.976 325.097L371.687 332.056C367.452 333.983 364.343 334.659 362.362 334.083C360.453 333.474 357.71 330.905 354.133 326.376C347.047 317.451 335.943 302.885 320.822 282.676C319.677 281.145 318.698 280.277 317.883 280.073C317.141 279.836 316.106 279.979 314.78 280.5L301.536 286.527L296.701 277.153L320.066 266.52C321.86 265.703 323.399 265.249 324.681 265.158C325.964 265.067 327.271 265.539 328.603 266.575C329.972 267.511 331.073 268.529 331.906 269.628C332.81 270.694 333.818 271.959 334.928 273.424C336.281 275.189 338.241 277.786 340.808 281.215C345.903 288.172 353.276 297.911 362.925 310.431C366.948 315.824 369.327 318.804 370.063 319.372C370.837 319.841 371.76 319.914 372.834 319.589L342.689 261.15C342.071 259.953 341.933 258.825 342.273 257.767C342.614 256.709 343.358 255.919 344.507 255.396L355.705 250.3ZM303.337 290.018L314.535 284.922C315.683 284.399 316.805 284.34 317.9 284.745C318.995 285.149 319.851 285.95 320.469 287.147L346.036 336.711C347.202 338.971 347.668 340.647 347.433 341.739C347.164 342.764 346.061 343.718 344.123 344.6L333.894 349.255L303.337 290.018Z" fill="black"/>
<path d="M210.492 359.284L204.425 353.01L212.677 296.658L170.259 317.854L161.778 309.084L226.657 276.666L232.756 282.973L224.472 339.292L266.89 318.096L275.371 326.866L210.492 359.284Z" fill="black"/>
<path d="M418 253C418 163.53 345.47 91 256 91C166.53 91 94 163.53 94 253C94 342.47 166.53 415 256 415C345.47 415 418 342.47 418 253ZM422 253C422 344.679 347.679 419 256 419C164.321 419 90 344.679 90 253C90 161.321 164.321 87 256 87C347.679 87 422 161.321 422 253Z" fill="black" stroke="black"/>
<path d="M265.364 230L313.351 326.303L261.655 352.062L256.501 341.717L297.823 321.127L281.609 288.587L242.963 307.843L237.809 297.498L276.454 278.242L260.147 245.514L218.155 266.437L213 256.092L265.364 230Z" fill="#565353"/>
</svg>
