<svg width="500" height="500" viewBox="0 0 500 500" fill="none" xmlns="http://www.w3.org/2000/svg">
<path d="M484.217 250C484.217 120.646 379.354 15.7831 250 15.7831C120.646 15.7831 15.7831 120.646 15.7831 250C15.7831 379.354 120.646 484.217 250 484.217C379.354 484.217 484.217 379.354 484.217 250ZM490 250C490 382.548 382.548 490 250 490C117.452 490 10 382.548 10 250C10 117.452 117.452 10 250 10C382.548 10 490 117.452 490 250Z" fill="#A7A7A7" stroke="black"/>
<path d="M206.585 281.742L250.806 145.879L285.517 257.111L206.585 281.742ZM318.82 246.242L266.262 76.4486C264.035 75.2364 261.366 75.1156 258.255 76.0863L178.256 320.86C180.381 327.667 183.399 331.414 187.311 332.1L297.349 297.762L327.043 392.918L361.259 382.24L331.566 287.085L382.755 270.634L375.784 228.466L318.82 246.242ZM169.268 320.088L251.393 68.4531C270.835 62.3863 284.663 61.8061 292.879 66.7123L343.589 229.215L396.469 212.713L406.92 272.868L361.757 287.438L391.451 382.593L321.851 404.312L292.157 309.157L188.146 341.614C179.358 339.43 173.065 332.254 169.268 320.088ZM239.578 261.672L274.766 250.691L259.445 201.593L239.578 261.672Z" fill="#92828C"/>
<path d="M443.993 131.964C443.964 132.622 442.768 135.997 440.406 142.089C438.044 148.181 434.855 156.273 430.838 166.365C426.829 176.293 422.068 187.896 416.556 201.174C411.167 214.462 405.373 228.545 399.175 243.422C392.976 258.298 386.572 273.654 379.962 289.49C373.352 305.325 366.818 320.836 360.359 336.023C354.023 351.219 347.901 365.771 341.992 379.679C336.212 393.433 330.989 405.743 326.322 416.61C321.778 427.486 317.928 436.6 314.771 443.951C311.744 451.148 309.753 455.782 308.8 457.855C308.374 459.143 307.788 459.84 307.044 459.947C306.422 460.063 305.62 460.083 304.637 460.006C303.9 459.948 303.358 459.658 303.01 459.135C302.779 458.787 302.468 458.845 302.078 459.31C301.189 459.901 300.333 459.751 299.508 458.861C298.8 458.144 298.251 458.019 297.86 458.484C296.437 460.024 295.353 460.847 294.608 460.954C293.857 461.226 293.528 460.291 293.621 458.151C293.924 454.045 293.72 447.421 293.01 438.28C292.429 428.984 291.426 418.086 289.999 405.584C288.703 392.928 287.084 379.173 285.144 364.319C283.204 349.465 281.155 334.272 278.998 318.74C276.84 303.208 274.676 287.841 272.504 272.638C270.332 257.436 268.237 243.313 266.217 230.27C264.205 217.062 262.435 205.36 260.908 195.163C259.381 184.967 258.179 177.191 257.303 171.837C255.187 177.948 252.355 186.316 248.809 196.94C245.269 207.4 241.362 219.235 237.086 232.445C232.81 245.656 228.31 259.757 223.586 274.749C218.869 289.577 214.156 304.322 209.447 318.985C204.737 333.648 200.234 347.832 195.936 361.536C191.769 375.085 188.034 387.182 184.733 397.825C181.44 408.304 178.785 416.851 176.77 423.466C174.755 430.081 173.668 433.795 173.509 434.608C173.242 435.083 172.906 435.718 172.501 436.512C172.097 437.306 171.624 438.26 171.082 439.374C170.547 440.323 169.756 441.5 168.708 442.904C167.834 443.166 167.085 443.355 166.464 443.472C165.965 443.598 165.409 443.637 164.794 443.589C163.905 444.18 163.143 444.698 162.507 445.144C161.864 445.754 161.289 446.205 160.783 446.495C160.27 446.951 159.761 447.324 159.255 447.614C158.605 448.389 157.961 449 157.325 449.445C156.69 449.891 156.057 450.255 155.428 450.536C155.183 450.516 154.637 450.308 153.791 449.912C153.068 449.525 152.288 449.05 151.449 448.489C150.733 447.937 150.021 447.303 149.313 446.587C148.597 446.035 148.192 445.425 148.098 444.757C147.584 442.404 146.788 438.047 145.71 431.685C144.632 425.323 143.311 417.456 141.747 408.083C140.307 398.719 138.675 388.101 136.851 376.23C135.15 364.368 133.232 351.828 131.096 338.611C129.084 325.403 126.967 311.774 124.745 297.724C122.646 283.683 120.543 269.725 118.437 255.849C116.815 244.984 115.082 233.863 113.236 222.486C111.391 211.108 109.538 199.895 107.678 188.847C105.818 177.798 103.998 167.248 102.217 157.197C100.56 147.156 98.9824 138.112 97.4844 130.065C96.1166 121.864 94.9369 114.999 93.9455 109.469C92.9612 103.776 92.328 99.9268 92.0456 97.9224C91.8646 96.4215 92.2221 95.2932 93.1182 94.5375C94.1444 93.6268 95.1817 93.8734 96.23 95.2771C97.0542 96.1677 97.7264 96.303 98.2467 95.683C98.8899 95.0727 99.5187 94.7916 100.133 94.8398C100.502 94.8687 101.047 95.0767 101.77 95.4638C102.616 95.8605 103.458 96.3395 104.297 96.9008C105.143 97.2975 105.923 97.7717 106.639 98.3234C107.478 98.8847 108.135 99.3493 108.612 99.7171C109.09 100.085 109.393 100.191 109.523 100.036C109.776 99.8909 109.975 99.5761 110.119 99.0919C110.387 98.6173 110.593 98.1379 110.737 97.6536C111.004 97.179 111.452 96.8012 112.081 96.5201C113.462 95.9676 114.748 96.1511 115.941 97.0706C117.134 97.99 118.215 98.653 119.183 99.0593C119.913 99.2817 120.286 99.2283 120.3 98.8991C120.321 98.4052 120.282 97.9065 120.18 97.403C120.209 96.7445 120.292 96.2554 120.429 95.9358C120.697 95.4612 121.38 95.3496 122.478 95.6009C124.199 95.7358 125.587 96.4228 126.642 97.6619C127.828 98.746 128.797 101.961 129.55 107.306C129.738 108.642 130.361 112.738 131.417 119.594C132.604 126.294 134.016 134.912 135.651 145.448C137.41 155.993 139.353 167.956 141.481 181.338C143.609 194.72 145.835 208.688 148.158 223.242C150.489 237.631 152.812 252.185 155.128 266.903C157.574 281.466 159.865 295.357 162 308.574C164.135 321.792 166.017 333.75 167.646 344.45C169.397 355.16 170.805 363.86 171.869 370.551C175.705 361.767 180.072 350.711 184.97 337.384C189.874 323.893 194.945 309.423 200.182 293.976C205.419 278.528 210.67 262.751 215.936 246.645C221.209 230.374 226.135 214.985 230.714 200.477C235.417 185.979 239.563 172.923 243.152 161.311C246.742 149.699 249.472 140.828 251.343 134.697C252.492 130.988 253.315 127.666 253.813 124.732C254.441 121.642 255.181 118.809 256.034 116.233C256.857 114.315 257.999 112.175 259.458 109.812C260.918 107.448 261.966 106.044 262.602 105.598C264.365 104.745 265.792 104.527 266.884 104.943C268.106 105.204 269.566 105.648 271.264 106.277C271.872 106.49 272.247 106.354 272.392 105.87C272.659 105.395 272.869 104.834 273.02 104.185C273.179 103.371 273.399 102.563 273.681 101.759C273.963 100.955 274.61 100.262 275.621 99.6809C278.787 97.7816 280.731 97.0255 281.454 97.4126C282.177 97.7997 282.824 99.9153 283.396 103.76C283.483 104.592 283.932 108.427 284.743 115.263C285.684 121.945 286.846 130.626 288.229 141.306C289.735 151.997 291.356 164.265 293.094 178.112C294.955 191.969 296.913 206.411 298.969 221.44C301.148 236.478 303.258 251.676 305.3 267.033C307.471 282.236 309.553 296.688 311.543 310.39C313.664 323.936 315.589 336.311 317.319 347.515C319.179 358.563 320.764 367.443 322.074 374.153C323.873 369.669 326.423 363.509 329.724 355.673C333.148 347.848 336.992 338.898 341.254 328.826C345.524 318.588 350.198 307.557 355.276 295.731C360.362 283.74 365.524 271.425 370.761 258.786C375.999 246.147 381.175 233.503 386.29 220.854C391.534 208.05 396.45 195.716 401.037 183.851C405.625 171.987 409.807 160.917 413.585 150.641C417.493 140.21 420.664 131.125 423.098 123.387C423.532 121.934 424.211 120.501 425.136 119.087C426.061 117.673 426.978 116.423 427.889 115.338C428.929 114.098 429.833 113.178 430.599 112.577C431.495 111.821 432.066 111.453 432.311 111.473C433.28 111.879 434.184 112.363 435.022 112.924C435.861 113.485 436.443 114.274 436.768 115.291C437.231 115.988 437.448 116.666 437.419 117.324C437.52 117.828 437.56 118.327 437.539 118.82C437.64 119.324 437.806 119.75 438.038 120.098C438.276 120.282 438.764 120.403 439.502 120.461C440.73 120.557 441.511 121.032 441.844 121.884C442.176 122.736 442.325 123.573 442.289 124.396C442.376 125.229 442.401 126.057 442.365 126.88C442.336 127.539 442.575 127.723 443.081 127.432C443.695 127.48 443.974 128.163 443.916 129.48C443.989 130.642 444.014 131.47 443.993 131.964Z" fill="#821D5A"/>
</svg>
